<?xml version="1.0" encoding="UTF-8" standalone="no"?>
<!DOCTYPE svg PUBLIC "-//W3C//DTD SVG 1.1//EN"
 "http://www.w3.org/Graphics/SVG/1.1/DTD/svg11.dtd">
<!-- Generated by graphviz version 9.0.0 (20230911.1827)
 -->
<!-- Title: G Pages: 1 -->
<svg width="410pt" height="332pt"
 viewBox="0.00 0.00 409.83 332.00" xmlns="http://www.w3.org/2000/svg" xmlns:xlink="http://www.w3.org/1999/xlink">
<g id="graph0" class="graph" transform="scale(1 1) rotate(0) translate(4 328)">
<title>G</title>
<polygon fill="white" stroke="none" points="-4,4 -4,-328 405.83,-328 405.83,4 -4,4"/>
<!-- 4354119312 -->
<g id="node1" class="node">
<title>4354119312</title>
<ellipse fill="none" stroke="black" cx="138.83" cy="-306" rx="27" ry="18"/>
<text text-anchor="middle" x="138.83" y="-300.95" font-family="Times,serif" font-size="14.00">S0</text>
</g>
<!-- 4354119504 -->
<g id="node2" class="node">
<title>4354119504</title>
<ellipse fill="none" stroke="black" cx="102.83" cy="-234" rx="27" ry="18"/>
<text text-anchor="middle" x="102.83" y="-228.95" font-family="Times,serif" font-size="14.00">NP</text>
</g>
<!-- 4354119312&#45;&gt;4354119504 -->
<g id="edge1" class="edge">
<title>4354119312&#45;&gt;4354119504</title>
<path fill="none" stroke="black" d="M130.48,-288.76C126.26,-280.55 121.02,-270.37 116.25,-261.09"/>
<polygon fill="black" stroke="black" points="119.51,-259.79 111.83,-252.49 113.29,-262.99 119.51,-259.79"/>
</g>
<!-- 4354119824 -->
<g id="node5" class="node">
<title>4354119824</title>
<ellipse fill="none" stroke="black" cx="174.83" cy="-234" rx="27" ry="18"/>
<text text-anchor="middle" x="174.83" y="-228.95" font-family="Times,serif" font-size="14.00">VP</text>
</g>
<!-- 4354119312&#45;&gt;4354119824 -->
<g id="edge4" class="edge">
<title>4354119312&#45;&gt;4354119824</title>
<path fill="none" stroke="black" d="M147.18,-288.76C151.41,-280.55 156.64,-270.37 161.41,-261.09"/>
<polygon fill="black" stroke="black" points="164.37,-262.99 165.84,-252.49 158.15,-259.79 164.37,-262.99"/>
</g>
<!-- 4354119440 -->
<g id="node3" class="node">
<title>4354119440</title>
<ellipse fill="none" stroke="black" cx="28.83" cy="-162" rx="28.83" ry="18"/>
<text text-anchor="middle" x="28.83" y="-156.95" font-family="Times,serif" font-size="14.00">DET</text>
</g>
<!-- 4354119504&#45;&gt;4354119440 -->
<g id="edge2" class="edge">
<title>4354119504&#45;&gt;4354119440</title>
<path fill="none" stroke="black" d="M87.86,-218.83C77.66,-209.19 63.96,-196.23 52.32,-185.22"/>
<polygon fill="black" stroke="black" points="55.06,-183 45.39,-178.67 50.25,-188.08 55.06,-183"/>
</g>
<!-- 4354119632 -->
<g id="node4" class="node">
<title>4354119632</title>
<ellipse fill="none" stroke="black" cx="102.83" cy="-162" rx="27" ry="18"/>
<text text-anchor="middle" x="102.83" y="-156.95" font-family="Times,serif" font-size="14.00">N</text>
</g>
<!-- 4354119504&#45;&gt;4354119632 -->
<g id="edge3" class="edge">
<title>4354119504&#45;&gt;4354119632</title>
<path fill="none" stroke="black" d="M102.83,-215.7C102.83,-208.41 102.83,-199.73 102.83,-191.54"/>
<polygon fill="black" stroke="black" points="106.33,-191.62 102.83,-181.62 99.33,-191.62 106.33,-191.62"/>
</g>
<!-- 4354120080 -->
<g id="node6" class="node">
<title>4354120080</title>
<ellipse fill="none" stroke="black" cx="174.83" cy="-162" rx="27" ry="18"/>
<text text-anchor="middle" x="174.83" y="-156.95" font-family="Times,serif" font-size="14.00">VP</text>
</g>
<!-- 4354119824&#45;&gt;4354120080 -->
<g id="edge5" class="edge">
<title>4354119824&#45;&gt;4354120080</title>
<path fill="none" stroke="black" d="M174.83,-215.7C174.83,-208.41 174.83,-199.73 174.83,-191.54"/>
<polygon fill="black" stroke="black" points="178.33,-191.62 174.83,-181.62 171.33,-191.62 178.33,-191.62"/>
</g>
<!-- 4354120272 -->
<g id="node11" class="node">
<title>4354120272</title>
<ellipse fill="none" stroke="black" cx="246.83" cy="-162" rx="27" ry="18"/>
<text text-anchor="middle" x="246.83" y="-156.95" font-family="Times,serif" font-size="14.00">PP</text>
</g>
<!-- 4354119824&#45;&gt;4354120272 -->
<g id="edge10" class="edge">
<title>4354119824&#45;&gt;4354120272</title>
<path fill="none" stroke="black" d="M189.75,-218.5C199.6,-208.92 212.69,-196.19 223.86,-185.34"/>
<polygon fill="black" stroke="black" points="226.12,-188.02 230.85,-178.54 221.24,-183 226.12,-188.02"/>
</g>
<!-- 4354120144 -->
<g id="node7" class="node">
<title>4354120144</title>
<ellipse fill="none" stroke="black" cx="102.83" cy="-90" rx="27" ry="18"/>
<text text-anchor="middle" x="102.83" y="-84.95" font-family="Times,serif" font-size="14.00">V</text>
</g>
<!-- 4354120080&#45;&gt;4354120144 -->
<g id="edge6" class="edge">
<title>4354120080&#45;&gt;4354120144</title>
<path fill="none" stroke="black" d="M159.91,-146.5C150.07,-136.92 136.97,-124.19 125.81,-113.34"/>
<polygon fill="black" stroke="black" points="128.43,-111 118.82,-106.54 123.55,-116.02 128.43,-111"/>
</g>
<!-- 4354120464 -->
<g id="node8" class="node">
<title>4354120464</title>
<ellipse fill="none" stroke="black" cx="174.83" cy="-90" rx="27" ry="18"/>
<text text-anchor="middle" x="174.83" y="-84.95" font-family="Times,serif" font-size="14.00">NP</text>
</g>
<!-- 4354120080&#45;&gt;4354120464 -->
<g id="edge7" class="edge">
<title>4354120080&#45;&gt;4354120464</title>
<path fill="none" stroke="black" d="M174.83,-143.7C174.83,-136.41 174.83,-127.73 174.83,-119.54"/>
<polygon fill="black" stroke="black" points="178.33,-119.62 174.83,-109.62 171.33,-119.62 178.33,-119.62"/>
</g>
<!-- 4354120528 -->
<g id="node9" class="node">
<title>4354120528</title>
<ellipse fill="none" stroke="black" cx="117.83" cy="-18" rx="28.83" ry="18"/>
<text text-anchor="middle" x="117.83" y="-12.95" font-family="Times,serif" font-size="14.00">DET</text>
</g>
<!-- 4354120464&#45;&gt;4354120528 -->
<g id="edge8" class="edge">
<title>4354120464&#45;&gt;4354120528</title>
<path fill="none" stroke="black" d="M162.46,-73.81C155.24,-64.94 145.96,-53.55 137.74,-43.45"/>
<polygon fill="black" stroke="black" points="140.55,-41.36 131.53,-35.82 135.13,-45.78 140.55,-41.36"/>
</g>
<!-- 4354120656 -->
<g id="node10" class="node">
<title>4354120656</title>
<ellipse fill="none" stroke="black" cx="191.83" cy="-18" rx="27" ry="18"/>
<text text-anchor="middle" x="191.83" y="-12.95" font-family="Times,serif" font-size="14.00">N</text>
</g>
<!-- 4354120464&#45;&gt;4354120656 -->
<g id="edge9" class="edge">
<title>4354120464&#45;&gt;4354120656</title>
<path fill="none" stroke="black" d="M178.95,-72.05C180.76,-64.6 182.93,-55.64 184.98,-47.22"/>
<polygon fill="black" stroke="black" points="188.32,-48.29 187.28,-37.75 181.52,-46.64 188.32,-48.29"/>
</g>
<!-- 4354120336 -->
<g id="node12" class="node">
<title>4354120336</title>
<ellipse fill="none" stroke="black" cx="246.83" cy="-90" rx="27" ry="18"/>
<text text-anchor="middle" x="246.83" y="-84.95" font-family="Times,serif" font-size="14.00">P</text>
</g>
<!-- 4354120272&#45;&gt;4354120336 -->
<g id="edge11" class="edge">
<title>4354120272&#45;&gt;4354120336</title>
<path fill="none" stroke="black" d="M246.83,-143.7C246.83,-136.41 246.83,-127.73 246.83,-119.54"/>
<polygon fill="black" stroke="black" points="250.33,-119.62 246.83,-109.62 243.33,-119.62 250.33,-119.62"/>
</g>
<!-- 4354121104 -->
<g id="node13" class="node">
<title>4354121104</title>
<ellipse fill="none" stroke="black" cx="318.83" cy="-90" rx="27" ry="18"/>
<text text-anchor="middle" x="318.83" y="-84.95" font-family="Times,serif" font-size="14.00">NP</text>
</g>
<!-- 4354120272&#45;&gt;4354121104 -->
<g id="edge12" class="edge">
<title>4354120272&#45;&gt;4354121104</title>
<path fill="none" stroke="black" d="M261.75,-146.5C271.6,-136.92 284.69,-124.19 295.86,-113.34"/>
<polygon fill="black" stroke="black" points="298.12,-116.02 302.85,-106.54 293.24,-111 298.12,-116.02"/>
</g>
<!-- 4354121168 -->
<g id="node14" class="node">
<title>4354121168</title>
<ellipse fill="none" stroke="black" cx="300.83" cy="-18" rx="28.83" ry="18"/>
<text text-anchor="middle" x="300.83" y="-12.95" font-family="Times,serif" font-size="14.00">DET</text>
</g>
<!-- 4354121104&#45;&gt;4354121168 -->
<g id="edge13" class="edge">
<title>4354121104&#45;&gt;4354121168</title>
<path fill="none" stroke="black" d="M314.47,-72.05C312.56,-64.6 310.25,-55.64 308.09,-47.22"/>
<polygon fill="black" stroke="black" points="311.53,-46.55 305.65,-37.74 304.75,-48.3 311.53,-46.55"/>
</g>
<!-- 4354121296 -->
<g id="node15" class="node">
<title>4354121296</title>
<ellipse fill="none" stroke="black" cx="374.83" cy="-18" rx="27" ry="18"/>
<text text-anchor="middle" x="374.83" y="-12.95" font-family="Times,serif" font-size="14.00">N</text>
</g>
<!-- 4354121104&#45;&gt;4354121296 -->
<g id="edge14" class="edge">
<title>4354121104&#45;&gt;4354121296</title>
<path fill="none" stroke="black" d="M330.98,-73.81C338.17,-64.82 347.45,-53.23 355.61,-43.03"/>
<polygon fill="black" stroke="black" points="358.24,-45.34 361.76,-35.34 352.78,-40.96 358.24,-45.34"/>
</g>
</g>
</svg>
